<svg width="520" height="431" viewBox="0 0 520 431" fill="none" xmlns="http://www.w3.org/2000/svg">
<rect width="520" height="431" fill="#D9D9D9"/>
<path d="M181.818 242V218.727H189.955C191.576 218.727 192.913 219.008 193.966 219.568C195.019 220.121 195.803 220.867 196.318 221.807C196.833 222.739 197.091 223.773 197.091 224.909C197.091 225.909 196.913 226.735 196.557 227.386C196.208 228.038 195.746 228.553 195.17 228.932C194.602 229.311 193.985 229.591 193.318 229.773V230C194.03 230.045 194.746 230.295 195.466 230.75C196.186 231.205 196.788 231.856 197.273 232.705C197.758 233.553 198 234.591 198 235.818C198 236.985 197.735 238.034 197.205 238.966C196.674 239.898 195.837 240.636 194.693 241.182C193.549 241.727 192.061 242 190.227 242H181.818ZM184.636 239.5H190.227C192.068 239.5 193.375 239.144 194.148 238.432C194.928 237.712 195.318 236.841 195.318 235.818C195.318 235.03 195.117 234.303 194.716 233.636C194.314 232.962 193.742 232.424 193 232.023C192.258 231.614 191.379 231.409 190.364 231.409H184.636V239.5ZM184.636 228.955H189.864C190.712 228.955 191.477 228.788 192.159 228.455C192.848 228.121 193.394 227.652 193.795 227.045C194.205 226.439 194.409 225.727 194.409 224.909C194.409 223.886 194.053 223.019 193.341 222.307C192.629 221.587 191.5 221.227 189.955 221.227H184.636V228.955ZM202.267 242V224.545H204.949V242H202.267ZM203.631 221.636C203.108 221.636 202.657 221.458 202.278 221.102C201.907 220.746 201.722 220.318 201.722 219.818C201.722 219.318 201.907 218.89 202.278 218.534C202.657 218.178 203.108 218 203.631 218C204.153 218 204.6 218.178 204.972 218.534C205.35 218.89 205.54 219.318 205.54 219.818C205.54 220.318 205.35 220.746 204.972 221.102C204.6 221.458 204.153 221.636 203.631 221.636ZM216.906 248.909C215.611 248.909 214.497 248.742 213.565 248.409C212.634 248.083 211.857 247.652 211.236 247.114C210.622 246.583 210.134 246.015 209.77 245.409L211.906 243.909C212.149 244.227 212.455 244.591 212.827 245C213.198 245.417 213.705 245.777 214.349 246.08C215.001 246.39 215.853 246.545 216.906 246.545C218.315 246.545 219.478 246.205 220.395 245.523C221.312 244.841 221.77 243.773 221.77 242.318V238.773H221.543C221.346 239.091 221.065 239.485 220.702 239.955C220.346 240.417 219.83 240.83 219.156 241.193C218.49 241.549 217.588 241.727 216.452 241.727C215.043 241.727 213.777 241.394 212.656 240.727C211.543 240.061 210.66 239.091 210.009 237.818C209.365 236.545 209.043 235 209.043 233.182C209.043 231.394 209.357 229.837 209.986 228.511C210.615 227.178 211.49 226.148 212.611 225.42C213.732 224.686 215.027 224.318 216.497 224.318C217.634 224.318 218.535 224.508 219.202 224.886C219.876 225.258 220.391 225.682 220.747 226.159C221.111 226.629 221.391 227.015 221.588 227.318H221.861V224.545H224.452V242.5C224.452 244 224.111 245.22 223.429 246.159C222.755 247.106 221.846 247.799 220.702 248.239C219.565 248.686 218.3 248.909 216.906 248.909ZM216.815 239.318C217.891 239.318 218.8 239.072 219.543 238.58C220.285 238.087 220.849 237.379 221.236 236.455C221.622 235.53 221.815 234.424 221.815 233.136C221.815 231.879 221.626 230.769 221.247 229.807C220.868 228.845 220.308 228.091 219.565 227.545C218.823 227 217.906 226.727 216.815 226.727C215.679 226.727 214.732 227.015 213.974 227.591C213.224 228.167 212.66 228.939 212.281 229.909C211.91 230.879 211.724 231.955 211.724 233.136C211.724 234.348 211.914 235.42 212.293 236.352C212.679 237.277 213.247 238.004 213.997 238.534C214.755 239.057 215.694 239.318 216.815 239.318ZM238.724 242V218.727H246.588C248.414 218.727 249.906 219.057 251.065 219.716C252.232 220.367 253.096 221.25 253.656 222.364C254.217 223.477 254.497 224.72 254.497 226.091C254.497 227.462 254.217 228.708 253.656 229.83C253.103 230.951 252.247 231.845 251.088 232.511C249.929 233.17 248.444 233.5 246.634 233.5H240.997V231H246.543C247.793 231 248.796 230.784 249.554 230.352C250.312 229.92 250.861 229.337 251.202 228.602C251.55 227.86 251.724 227.023 251.724 226.091C251.724 225.159 251.55 224.326 251.202 223.591C250.861 222.856 250.308 222.28 249.543 221.864C248.777 221.439 247.762 221.227 246.497 221.227H241.543V242H238.724ZM261.355 231.5V242H258.673V218.727H261.355V227.273H261.582C261.991 226.371 262.605 225.655 263.423 225.125C264.249 224.587 265.348 224.318 266.719 224.318C267.908 224.318 268.95 224.557 269.844 225.034C270.738 225.504 271.431 226.227 271.923 227.205C272.423 228.174 272.673 229.409 272.673 230.909V242H269.991V231.091C269.991 229.705 269.632 228.633 268.912 227.875C268.2 227.11 267.211 226.727 265.946 226.727C265.067 226.727 264.279 226.913 263.582 227.284C262.893 227.655 262.348 228.197 261.946 228.909C261.552 229.621 261.355 230.485 261.355 231.5ZM284.67 242.364C283.095 242.364 281.712 241.989 280.523 241.239C279.341 240.489 278.417 239.439 277.75 238.091C277.091 236.742 276.761 235.167 276.761 233.364C276.761 231.545 277.091 229.958 277.75 228.602C278.417 227.246 279.341 226.193 280.523 225.443C281.712 224.693 283.095 224.318 284.67 224.318C286.246 224.318 287.625 224.693 288.807 225.443C289.996 226.193 290.92 227.246 291.58 228.602C292.246 229.958 292.58 231.545 292.58 233.364C292.58 235.167 292.246 236.742 291.58 238.091C290.92 239.439 289.996 240.489 288.807 241.239C287.625 241.989 286.246 242.364 284.67 242.364ZM284.67 239.955C285.867 239.955 286.852 239.648 287.625 239.034C288.398 238.42 288.97 237.614 289.341 236.614C289.712 235.614 289.898 234.53 289.898 233.364C289.898 232.197 289.712 231.11 289.341 230.102C288.97 229.095 288.398 228.28 287.625 227.659C286.852 227.038 285.867 226.727 284.67 226.727C283.473 226.727 282.489 227.038 281.716 227.659C280.943 228.28 280.371 229.095 280 230.102C279.629 231.11 279.443 232.197 279.443 233.364C279.443 234.53 279.629 235.614 280 236.614C280.371 237.614 280.943 238.42 281.716 239.034C282.489 239.648 283.473 239.955 284.67 239.955ZM304.264 224.545V226.818H295.219V224.545H304.264ZM297.855 220.364H300.537V237C300.537 237.758 300.647 238.326 300.866 238.705C301.094 239.076 301.382 239.326 301.73 239.455C302.086 239.576 302.461 239.636 302.855 239.636C303.151 239.636 303.393 239.621 303.582 239.591C303.772 239.553 303.923 239.523 304.037 239.5L304.582 241.909C304.401 241.977 304.147 242.045 303.821 242.114C303.495 242.189 303.082 242.227 302.582 242.227C301.825 242.227 301.082 242.064 300.355 241.739C299.635 241.413 299.037 240.917 298.56 240.25C298.09 239.583 297.855 238.742 297.855 237.727V220.364ZM315.202 242.364C313.626 242.364 312.243 241.989 311.054 241.239C309.872 240.489 308.948 239.439 308.281 238.091C307.622 236.742 307.293 235.167 307.293 233.364C307.293 231.545 307.622 229.958 308.281 228.602C308.948 227.246 309.872 226.193 311.054 225.443C312.243 224.693 313.626 224.318 315.202 224.318C316.777 224.318 318.156 224.693 319.338 225.443C320.527 226.193 321.452 227.246 322.111 228.602C322.777 229.958 323.111 231.545 323.111 233.364C323.111 235.167 322.777 236.742 322.111 238.091C321.452 239.439 320.527 240.489 319.338 241.239C318.156 241.989 316.777 242.364 315.202 242.364ZM315.202 239.955C316.399 239.955 317.384 239.648 318.156 239.034C318.929 238.42 319.501 237.614 319.872 236.614C320.243 235.614 320.429 234.53 320.429 233.364C320.429 232.197 320.243 231.11 319.872 230.102C319.501 229.095 318.929 228.28 318.156 227.659C317.384 227.038 316.399 226.727 315.202 226.727C314.005 226.727 313.02 227.038 312.247 227.659C311.474 228.28 310.902 229.095 310.531 230.102C310.16 231.11 309.974 232.197 309.974 233.364C309.974 234.53 310.16 235.614 310.531 236.614C310.902 237.614 311.474 238.42 312.247 239.034C313.02 239.648 314.005 239.955 315.202 239.955Z" fill="black"/>
</svg>
